<svg width="100" height="36" fill="none" xmlns="http://www.w3.org/2000/svg"><path d="M18.391 5.344c.776 3.213.514 6.04-.585 6.313-1.1.274-2.619-2.11-3.394-5.323-.776-3.213-.514-6.04.585-6.313 1.1-.273 2.619 2.11 3.394 5.323zm12.806 2.763c-1.717-1.82-5.134-1.327-7.632 1.102-2.497 2.429-3.13 5.873-1.412 7.694 1.717 1.82 5.134 1.327 7.632-1.102 2.497-2.43 3.13-5.874 1.412-7.694zM17.537 35.98c1.1-.273 1.323-3.26.5-6.67s-2.382-5.954-3.48-5.68c-1.1.273-1.323 3.26-.5 6.67s2.381 5.953 3.48 5.68zM6.335 9.773c3.17.935 5.487 2.575 5.174 3.664-.312 1.088-3.136 1.213-6.306.278S-.284 11.14.028 10.05c.313-1.088 3.137-1.213 6.307-.278zm20.578 12.29c3.364.993 5.839 2.68 5.526 3.768-.313 1.088-3.294 1.166-6.659.174-3.365-.993-5.84-2.68-5.527-3.768.313-1.088 3.294-1.166 6.66-.174zM9.902 19.78c-.787-.815-3.366.37-5.76 2.649-2.395 2.278-3.7 4.786-2.913 5.6.786.816 3.365-.37 5.76-2.649 2.395-2.278 3.699-4.785 2.912-5.6z" fill="#000"/><path d="M48.096 10.11v-.697h-2.873V28h2.873v-5.008c0-.542 0-.981-.053-1.575h.053c1.044 1.704 2.82 2.607 4.91 2.607 3.526 0 6.607-2.659 6.607-7.59 0-4.827-3.081-7.434-6.607-7.434-2.011 0-3.787.878-4.91 2.607h-.053c.053-.568.053-.98.053-1.497zm4.178 11.462c-2.664-.026-4.205-2.272-4.205-5.163 0-2.736 1.541-4.93 4.205-4.957 2.612-.025 4.336 1.988 4.336 4.983 0 3.072-1.724 5.163-4.336 5.137zm22.425-6.35C74.7 11.659 71.828 9 67.91 9c-4.179 0-7.078 2.814-7.078 7.512 0 4.518 2.847 7.512 7.078 7.512 3.474 0 6.06-2.013 6.66-4.775h-3.134c-.496 1.394-1.855 2.323-3.526 2.323-2.142 0-3.709-1.523-4.048-4.053H74.7v-2.297zm-6.79-3.77c2.115 0 3.578 1.446 3.891 3.537h-7.913c.365-2.014 1.854-3.537 4.022-3.537zm8.902 12.16h2.873v-8.003c0-2.737 1.515-4.157 3.866-4.157h1.54V9h-1.227c-2.115 0-3.421 1.394-4.179 2.607h-.052V9.413h-2.82v14.198zm21.71-2.479c-.392 0-.574-.232-.574-.697V14.19c0-2.995-1.463-5.189-5.772-5.189-4.18 0-6.086 2.065-6.295 5.008h2.873c.183-1.6 1.463-2.556 3.422-2.556 1.671 0 2.82.723 2.82 1.86 0 .929-.653 1.496-2.794 1.496h-1.15c-3.42 0-5.72 1.369-5.72 4.492 0 3.279 2.43 4.776 5.277 4.776 2.115 0 3.917-.93 4.622-2.917.079 1.446 1.045 2.452 2.873 2.452h1.62v-2.478H98.52zm-3.447-4.13c0 3.2-1.75 4.595-3.996 4.595-1.959 0-2.743-1.136-2.743-2.298 0-1.11.68-2.013 2.769-2.013h.418c2.01 0 3.264-.697 3.526-1.91h.026v1.626z" fill="#0D0D0D"/></svg>